<svg xmlns="http://www.w3.org/2000/svg" version="1.1" viewBox="0 0 256 256" width="256.0pt" height="256.0pt" >
    <path d="M 0.00 0.00 L 256.00 0.00 L 256.00 256.00 L 0.00 256.00 L 0.00 0.00 Z" fill="#ffffff" fill-opacity="0"/>
    <path d="M 127.73 14.35 C 138.50 25.72 150.07 36.43 160.78 47.84 C 159.56 48.10 158.29 48.23 156.99 48.20 C 147.23 48.13 137.47 48.27 127.71 48.12 C 123.95 51.52 120.24 55.05 116.69 58.66 C 115.62 59.55 116.31 61.46 116.40 62.65 C 119.39 80.08 122.38 97.50 125.33 114.93 C 126.00 119.23 127.32 123.10 127.14 127.51 C 126.14 126.75 125.14 126.00 124.13 125.24 C 122.93 123.65 121.64 122.19 120.20 120.80 C 103.76 104.56 87.62 87.98 71.06 71.88 C 71.28 71.26 71.65 70.70 72.18 70.20 C 79.52 62.68 87.32 55.52 94.33 47.71 C 105.50 36.63 116.58 25.45 127.73 14.35 Z"
          fill="#ff4136"/>
    <path d="M 47.46 48.28 L 47.83 47.52 C 63.32 47.72 78.85 47.37 94.33 47.71 C 87.32 55.52 79.52 62.68 72.18 70.20 C 71.65 70.70 71.28 71.26 71.06 71.88 C 70.76 77.20 70.49 82.66 70.88 87.97 C 72.90 89.73 75.14 91.17 77.32 92.72 C 90.40 101.95 103.44 111.25 116.52 120.48 C 119.04 122.23 121.18 124.22 124.13 125.24 C 125.14 126.00 126.14 126.75 127.14 127.51 L 127.49 128.45 L 127.05 128.91 L 125.16 128.61 C 120.78 127.78 116.59 128.30 112.00 128.25 C 91.68 128.23 71.30 128.28 50.99 128.22 C 49.89 128.28 48.80 128.40 47.71 128.59 C 47.05 126.21 47.48 123.46 47.39 121.00 C 47.31 112.52 47.62 104.01 47.16 95.54 L 47.39 94.05 C 47.47 78.85 47.34 63.46 47.46 48.28 Z"
          fill="#ffaf3b"/>
    <path d="M 127.71 48.12 C 127.69 74.44 127.51 100.82 127.81 127.14 L 127.78 127.76 L 127.49 128.45 L 127.14 127.51 C 127.32 123.10 126.00 119.23 125.33 114.93 C 122.38 97.50 119.39 80.08 116.40 62.65 C 116.31 61.46 115.62 59.55 116.69 58.66 C 120.24 55.05 123.95 51.52 127.71 48.12 Z"
          fill="#cc342b"/>
    <path d="M 127.71 48.12 C 137.47 48.27 147.23 48.13 156.99 48.20 C 158.29 48.23 159.56 48.10 160.78 47.84 C 176.18 47.67 191.62 47.81 207.03 47.77 L 207.65 48.17 C 207.57 63.71 207.60 79.26 207.63 94.81 C 201.74 88.56 195.53 82.61 189.47 76.54 C 187.81 74.86 186.18 72.95 184.23 71.65 C 178.99 71.18 173.55 71.27 168.28 71.34 C 167.12 72.53 166.14 73.85 165.20 75.21 C 155.47 89.13 145.54 102.90 135.77 116.79 C 134.28 118.97 132.55 120.66 131.99 123.34 C 130.69 124.71 129.26 125.93 127.81 127.14 C 127.51 100.82 127.69 74.44 127.71 48.12 Z"
          fill="#6651ac"/>
    <path d="M 168.28 71.34 C 173.55 71.27 178.99 71.18 184.23 71.65 C 167.86 88.09 151.34 104.52 134.97 120.97 C 134.04 121.84 133.01 122.57 131.99 123.34 C 132.55 120.66 134.28 118.97 135.77 116.79 C 145.54 102.90 155.47 89.13 165.20 75.21 C 166.14 73.85 167.12 72.53 168.28 71.34 Z"
          fill="#52418a"/>
    <path d="M 71.06 71.88 C 87.62 87.98 103.76 104.56 120.20 120.80 C 121.64 122.19 122.93 123.65 124.13 125.24 C 121.18 124.22 119.04 122.23 116.52 120.48 C 103.44 111.25 90.40 101.95 77.32 92.72 C 75.14 91.17 72.90 89.73 70.88 87.97 C 70.49 82.66 70.76 77.20 71.06 71.88 Z"
          fill="#d98e1d"/>
    <path d="M 184.23 71.65 C 186.18 72.95 187.81 74.86 189.47 76.54 C 195.53 82.61 201.74 88.56 207.63 94.81 C 217.63 104.66 227.49 114.65 237.44 124.56 C 238.79 125.83 239.74 127.26 241.53 127.96 C 239.58 128.86 238.49 130.47 236.93 131.93 C 227.29 141.49 217.80 151.23 208.06 160.69 C 208.01 151.13 207.98 141.56 208.06 132.00 C 207.99 130.55 208.25 129.25 207.36 128.01 C 205.01 124.95 202.08 122.37 199.54 119.46 C 198.12 118.16 197.25 116.32 195.02 116.83 C 174.05 120.15 153.04 124.18 132.08 127.35 L 130.77 128.07 C 130.11 128.47 129.45 128.88 128.81 129.31 L 127.78 128.67 L 127.78 127.76 L 127.81 127.14 C 129.26 125.93 130.69 124.71 131.99 123.34 C 133.01 122.57 134.04 121.84 134.97 120.97 C 151.34 104.52 167.86 88.09 184.23 71.65 Z"
          fill="#3c49ac"/>
    <path d="M 47.16 95.54 C 47.62 104.01 47.31 112.52 47.39 121.00 C 47.48 123.46 47.05 126.21 47.71 128.59 C 51.51 132.13 54.95 136.88 59.07 139.87 C 78.35 136.86 97.69 133.28 116.98 130.14 C 119.72 129.72 122.44 129.16 125.16 128.61 L 127.05 128.91 C 125.64 130.39 124.13 131.76 122.71 133.23 C 105.67 150.47 88.27 167.47 71.35 184.81 L 70.38 184.60 C 62.98 177.08 55.49 169.62 47.99 162.19 C 47.39 161.40 46.81 160.60 46.11 159.90 C 35.45 149.29 24.85 138.61 14.18 128.01 C 24.37 117.92 34.48 107.75 44.62 97.61 C 45.40 96.85 46.25 96.16 47.16 95.54 Z"
          fill="#ffcf5b"/>
    <path d="M 195.02 116.83 C 197.25 116.32 198.12 118.16 199.54 119.46 C 202.08 122.37 205.01 124.95 207.36 128.01 C 203.91 128.40 200.46 128.31 197.00 128.29 C 178.00 128.30 159.00 128.28 140.00 128.30 C 136.91 128.34 133.86 128.28 130.77 128.07 L 132.08 127.35 C 153.04 124.18 174.05 120.15 195.02 116.83 Z"
          fill="#303a88"/>
    <path d="M 50.99 128.22 C 71.30 128.28 91.68 128.23 112.00 128.25 C 116.59 128.30 120.78 127.78 125.16 128.61 C 122.44 129.16 119.72 129.72 116.98 130.14 C 97.69 133.28 78.35 136.86 59.07 139.87 C 54.95 136.88 51.51 132.13 47.71 128.59 C 48.80 128.40 49.89 128.28 50.99 128.22 Z"
          fill="#daaa37"/>
    <path d="M 127.49 128.45 L 127.78 127.76 L 127.78 128.67 C 127.76 130.02 127.82 131.36 127.95 132.69 C 127.48 150.43 127.88 168.24 127.74 186.00 C 127.83 193.39 127.55 200.81 127.92 208.19 C 125.90 209.08 123.18 208.47 121.00 208.63 C 112.50 208.78 103.91 208.27 95.43 208.90 C 94.48 207.82 93.31 208.27 92.01 208.16 C 77.28 208.20 62.53 208.25 47.80 208.14 C 47.65 194.77 47.79 181.37 47.73 168.00 C 47.72 166.05 47.61 164.12 47.99 162.19 C 55.49 169.62 62.98 177.08 70.38 184.60 L 71.35 184.81 C 76.53 185.34 81.81 185.25 87.01 185.26 C 89.05 183.24 90.52 180.64 92.25 178.28 C 101.55 165.21 110.79 152.11 120.09 139.05 C 121.32 137.15 123.17 135.72 122.71 133.23 C 124.13 131.76 125.64 130.39 127.05 128.91 L 127.49 128.45 Z"
          fill="#62c689"/>
    <path d="M 130.77 128.07 C 133.86 128.28 136.91 128.34 140.00 128.30 C 159.00 128.28 178.00 128.30 197.00 128.29 C 200.46 128.31 203.91 128.40 207.36 128.01 C 208.25 129.25 207.99 130.55 208.06 132.00 C 207.98 141.56 208.01 151.13 208.06 160.69 L 207.61 161.92 C 207.64 177.20 207.65 192.54 207.61 207.81 L 207.10 208.30 C 191.91 208.11 176.68 208.46 161.51 208.12 C 167.57 201.66 173.99 195.53 180.23 189.23 C 181.55 187.79 183.53 186.44 184.21 184.57 C 184.94 179.82 184.68 174.81 184.74 170.00 C 184.88 168.40 183.15 167.72 182.14 166.82 C 167.32 156.32 152.48 145.82 137.66 135.32 C 135.28 133.65 133.64 131.67 130.68 131.07 C 130.07 130.47 129.44 129.88 128.81 129.31 C 129.45 128.88 130.11 128.47 130.77 128.07 Z"
          fill="#3d63bb"/>
    <path d="M 127.78 128.67 L 128.81 129.31 C 129.44 129.88 130.07 130.47 130.68 131.07 C 145.15 145.98 160.07 160.52 174.71 175.29 C 177.87 178.38 180.89 181.66 184.21 184.57 C 183.53 186.44 181.55 187.79 180.23 189.23 C 173.99 195.53 167.57 201.66 161.51 208.12 C 160.72 208.38 160.04 208.83 159.48 209.46 C 149.00 220.10 138.27 230.52 127.87 241.24 C 126.81 240.70 126.00 239.66 125.16 238.84 C 115.31 228.82 105.12 219.05 95.43 208.90 C 103.91 208.27 112.50 208.78 121.00 208.63 C 123.18 208.47 125.90 209.08 127.92 208.19 C 131.84 204.71 135.92 201.00 139.34 197.04 C 136.31 177.48 132.64 157.95 129.53 138.39 C 129.25 136.38 128.79 134.53 127.95 132.69 C 127.82 131.36 127.76 130.02 127.78 128.67 Z"
          fill="#0cc6b5"/>
    <path d="M 130.68 131.07 C 133.64 131.67 135.28 133.65 137.66 135.32 C 152.48 145.82 167.32 156.32 182.14 166.82 C 183.15 167.72 184.88 168.40 184.74 170.00 C 184.68 174.81 184.94 179.82 184.21 184.57 C 180.89 181.66 177.87 178.38 174.71 175.29 C 160.07 160.52 145.15 145.98 130.68 131.07 Z"
          fill="#314f97"/>
    <path d="M 127.95 132.69 C 128.79 134.53 129.25 136.38 129.53 138.39 C 132.64 157.95 136.31 177.48 139.34 197.04 C 135.92 201.00 131.84 204.71 127.92 208.19 C 127.55 200.81 127.83 193.39 127.74 186.00 C 127.88 168.24 127.48 150.43 127.95 132.69 Z"
          fill="#0c9f91"/>
    <path d="M 122.71 133.23 C 123.17 135.72 121.32 137.15 120.09 139.05 C 110.79 152.11 101.55 165.21 92.25 178.28 C 90.52 180.64 89.05 183.24 87.01 185.26 C 81.81 185.25 76.53 185.34 71.35 184.81 C 88.27 167.47 105.67 150.47 122.71 133.23 Z"
          fill="#4e9f6e"/>
</svg>
